<svg xmlns="http://www.w3.org/2000/svg" viewBox="116.3 -1 208.4 206.2" width="208.4" height="206.2" fill="none" version="1.1" role="img">
<path d="m293.44 123.44c-0.244 0.5-0.727 0.845-1.281 0.909-12.628 1.465-26.046-0.291-31.219-1.103-8.636-8.628-17.985-18.225-24.877-26.612-0.707-0.859-0.741-2.0876-0.091-2.9924 9.829-13.703 18.83-24.576 22.635-28.881 10.872-2.3695 21.713-4.4671 29.034-4.7662 0.553-0.0222 1.079 0.2324 1.403 0.6811 9.437 13.126 16.187 25.703 18.353 30.299-4.333 11.642-9.546 23.403-13.957 32.466zm-12.048 22.208c-6.961 11.654-12.249 18.68-13.944 20.816-2.3 3.247-8.163 11.706-17.271 20.262-0.581 0.546-1.339 0.86-2.138 0.895-11.406 0.475-22.011-0.325-26.141-1.226-3.497-1.446-11.636-5.106-21.256-10.425-0.839-0.463-1.333-1.367-1.27-2.321 0.502-7.457 2.868-18.079 4.961-29.312 5.175-9.087 10.54-19.455 16.103-27.971 0.586-0.896 1.683-1.313 2.718-1.03 16.657 4.547 31.111 8 36.979 9.32 8.035 9.317 15.821 15.868 21.059 19.929 0.326 0.253 0.41 0.709 0.2 1.063zm-100.78 16.195c-0.844 0.523-1.919 0.495-2.73-0.079-7.253-5.134-15.907-11.695-23.115-18.43-4.252-7.266-7.531-16.565-9.82-24.484-0.148-0.51-0.034-1.062 0.302-1.473 8.088-9.943 17.795-17.81 21.853-20.805 9.155 3.9492 19.663 7.4332 28.855 10.49 0.94 0.312 1.604 1.155 1.682 2.14 1.296 16.352 4.292 29.576 5.092 34.629-3.432 3.667-12.4 11.98-22.119 18.012zm-40.286-64.342c-1.2-7.7191-1.989-15.826-2.076-19.539-0.199-8.5732 1.163-16.166 2.745-23.196 0.26-1.1508 0.857-2.194 1.728-2.9912 4.595-4.2087 12.904-11.634 18.148-14.997 4.943-3.1692 18.681-7.6041 24.346-9.2493 1.098-0.3201 2.268 0.1681 2.833 1.1607 0.681 1.1965 1.393 2.3843 2.148 3.5536 4.46 6.9428 9.375 12.92 11.445 15.509-2.744 10.894-3.91 23.109-4.441 33.413-0.05 0.9666-0.666 1.8133-1.569 2.1655-14.333 5.5906-25.166 9.965-28.806 11.645-9.848 0.4154-19.228 2.0939-25.559 3.2002-0.449 0.0791-0.872-0.2263-0.942-0.6737zm72.254-74.816c0.392-0.6081 1.034-1.0135 1.752-1.1087 14.739-1.9468 28.224-2.2335 33.407-2.0902 9.432 6.2717 18.649 14.547 26.005 22.395 0.515 0.55 0.592 1.3782 0.185 2.0135-5.249 8.2085-12.883 16.09-16.236 19.522-12.436 2.943-25.62 7.2271-36.321 10.739-1.041 0.3411-2.185-0.0457-2.807-0.948-8.12-11.794-13.28-21.905-15.303-25.656 2.196-9.8327 5.267-18.589 9.318-24.865zm98.455 96.817c-0.264 0.119-0.567-0.067-0.582-0.355-0.618-12.107-1.732-23.871-2.315-28.173 0.047-10.456-1.687-21.306-3.417-29.306-0.062-0.2892 0.194-0.5476 0.485-0.4895 9.894 2.0197 13.07 5.7241 13.07 5.7241-5.238-11.741-12.785-20.589-20.988-27.276-7.013-14.68-15.085-21.47-15.085-21.47 0.653 3.247 0.203 6.9193-0.954 10.709-0.073 0.241-0.349 0.356-0.576 0.246-13.442-6.5708-27.322-9.5719-32.691-10.323-8.023-3.8985-16.786-6.4781-23.912-8.4335-0.19-0.0519-0.242-0.2979-0.089-0.42523 9.458-7.8464 18.158-9.8438 18.158-9.8438-15.402-0.61678-28.659 2.168-39.744 6.4262-16.562-1.3263-27.112 1.5525-27.112 1.5525s4.573 5.4707 6.351 8.5163c0.214 0.3684 0.102 0.8405-0.249 1.0828-10.417 7.2184-17.891 15.148-20.838 18.449-3.283 0.4437-8.969 1.2286-13.935 2.4523-0.198 0.0494-0.366-0.1496-0.286-0.3374 4.973-11.838 10.394-18.391 10.394-18.391s-31.964 22.681-38.023 63.438c0 0 2.632-7.2246 11.532-18.175 0.117-0.1434 0.344-0.115 0.42 0.0544 2.522 5.5794 5.405 10.534 6.854 12.808-4.895 7.8736-8.274 16.459-10.355 23.485-0.072 0.244-0.256 0.44-0.496 0.53-7.403 2.808-9.289 5.487-9.289 5.487 1.151 3.928 3.411 7.757 6.266 11.366 0.248 0.312 0.374 0.702 0.357 1.1-0.786 17.394 4.83 28.843 4.83 28.843 1.268-6.075 3.751-11.976 6.887-17.514 0.125-0.221 0.419-0.276 0.617-0.119 7.306 5.798 14.874 10.867 17.877 12.667 1.549 3.952 5.984 14.207 11.91 24.728 0.124 0.222 0.023 0.503-0.216 0.59-7.096 2.583-14.376 3.752-21.051 2.128 0 0 8.05 10.02 32.882 14.293 6.889 8.134 15.273 14.87 25.064 17.21 0 0-2.87-3.152-3.579-14.898-0.015-0.238 0.176-0.441 0.415-0.437 6.131 0.092 14.448 0.225 22.061-0.327 2.698 2.125 8.586 6.79 14.329 9.763 0.286 0.148 0.304 0.55 0.029 0.717-10.095 6.097-16.812 6.628-16.812 6.628 45.727 0.973 73.182-28.815 73.182-28.815-7.532 4.949-16.23 8.026-24.888 9.859-0.292 0.062-0.548-0.196-0.487-0.488 1.608-7.769 1.157-15.281 1.044-17.928 10.849-2.688 20.313-7.53 27.32-12.48 0.141-0.1 0.33-0.101 0.473-2e-3 2.917 2.027 5.413 4.301 7.904 8.087 0 0 4.744-6.704 6.376-22.237 11.746-15.316 13.492-30.993 13.492-30.993-2.947 4.603-7.397 7.92-12.61 10.297z" fill="#FFFFFF"/>
</svg>
